<?xml version="1.0" encoding="UTF-8"?>
<svg version="1.1" xmlns="http://www.w3.org/2000/svg" width="1728" height="402">
<path d="M0 0 C570.24 0 1140.48 0 1728 0 C1728 132.66 1728 265.32 1728 402 C1157.76 402 587.52 402 0 402 C0 269.34 0 136.68 0 0 Z " fill="#010101" transform="translate(0,0)"/>
<path d="M0 0 C506.22 0 1012.44 0 1534 0 C1534 13.2 1534 26.4 1534 40 C1027.78 40 521.56 40 0 40 C0 26.8 0 13.6 0 0 Z M2 3 C2 14.55 2 26.1 2 38 C506.9 38 1011.8 38 1532 38 C1532 26.12 1532 14.24 1532 2 C1485.32714846 1.99450878 1438.6542969 1.98923006 1391.98144531 1.98413086 C1391.06817951 1.98403106 1390.15491371 1.98393126 1389.21397319 1.98382844 C1291.38164226 1.9731439 1193.54931131 1.96392007 1095.71697998 1.95765686 C1093.5445484 1.95751741 1091.37211683 1.95737796 1089.19968525 1.95723851 C1043.60257269 1.954316 998.00546013 1.95159926 952.40834754 1.94912032 C929.50435805 1.9478749 906.60036856 1.94658993 883.69637907 1.94526756 C880.24133854 1.94506831 876.786298 1.94487019 873.33125746 1.94467212 C820.11093416 1.94161113 766.8906111 1.93770042 713.67028809 1.93133545 C712.52548109 1.93119855 711.38067409 1.93106165 710.20117598 1.9309206 C691.74279213 1.92870816 673.28440829 1.92642458 654.82602445 1.92413156 C601.67822998 1.91753029 548.53043568 1.91145257 495.38264084 1.90886021 C493.74418992 1.9087799 493.74418992 1.9087799 492.07263898 1.90869798 C468.09744547 1.90753238 444.12225195 1.90663745 420.14705841 1.90599902 C410.50112274 1.90573738 400.85518707 1.90543677 391.2092514 1.90512276 C390.15352751 1.90508933 389.09780362 1.9050559 388.01008809 1.90502146 C353.96083128 1.90392396 319.91157577 1.89964929 285.86231949 1.89371779 C251.57997665 1.88776017 217.29763508 1.88489878 183.01529172 1.88637601 C178.28387231 1.88657911 173.55245289 1.88674648 168.82103348 1.88689232 C167.89349474 1.8869222 166.965956 1.88695208 166.01031002 1.88698287 C151.28997585 1.88736435 136.56964435 1.88437176 121.84931091 1.87999014 C107.39443733 1.87575625 92.93956723 1.87505173 78.48469333 1.87816819 C69.99736849 1.87988985 61.51005465 1.87883712 53.02273109 1.873783 C46.74091123 1.87034372 40.4591031 1.87205408 34.17728367 1.87586002 C31.63749605 1.87657994 29.09770727 1.87558846 26.55792111 1.87276476 C23.13244424 1.86919493 19.70702559 1.87168992 16.28155065 1.8758015 C15.28556565 1.87329263 14.28958065 1.87078375 13.26341429 1.86819885 C12.35581175 1.87055174 11.44820921 1.87290464 10.51310356 1.87532884 C9.73196725 1.87526483 8.95083094 1.87520082 8.14602384 1.87513488 C5.66155434 1.95302131 5.66155434 1.95302131 2 3 Z " fill="#707070" transform="translate(99,46)"/>
<path d="M0 0 C37.95 0 75.9 0 115 0 C115 0.33 115 0.66 115 1 C112.03 1 109.06 1 106 1 C106 1.66 106 2.32 106 3 C105.18015625 3.13277344 104.3603125 3.26554688 103.515625 3.40234375 C102.43796875 3.57894531 101.3603125 3.75554687 100.25 3.9375 C99.18265625 4.11152344 98.1153125 4.28554687 97.015625 4.46484375 C94.63652407 4.88704171 92.33084789 5.37202884 90 6 C90 6.66 90 7.32 90 8 C86.84921768 9.83795635 83.69000414 10.54124203 80.16015625 11.359375 C77.14182855 12.25450293 74.50562368 13.67030246 71.76171875 15.1953125 C70 16 70 16 67 16 C67 16.66 67 17.32 67 18 C66.34 18 65.68 18 65 18 C65 18.66 65 19.32 65 20 C64.01 20 63.02 20 62 20 C62 20.66 62 21.32 62 22 C61.030625 22.268125 60.06125 22.53625 59.0625 22.8125 C58.051875 23.204375 57.04125 23.59625 56 24 C55.505 25.485 55.505 25.485 55 27 C53.35 27.33 51.7 27.66 50 28 C50 28.66 50 29.32 50 30 C49.34 30 48.68 30 48 30 C47.6596875 31.1446875 47.6596875 31.1446875 47.3125 32.3125 C45.71278599 35.58810488 44.10080608 36.2170365 41 38 C40.690625 38.70125 40.38125 39.4025 40.0625 40.125 C39.5365625 41.053125 39.5365625 41.053125 39 42 C35.875 42.75 35.875 42.75 33 43 C32.67 44.98 32.34 46.96 32 49 C31.34 49 30.68 49 30 49 C29.773125 49.804375 29.54625 50.60875 29.3125 51.4375 C28.6628125 52.7059375 28.6628125 52.7059375 28 54 C25.375 54.8125 25.375 54.8125 23 55 C22.87625 56.093125 22.7525 57.18625 22.625 58.3125 C22 62 22 62 20 65 C19.34 65 18.68 65 18 65 C17.67 66.65 17.34 68.3 17 70 C16.34 70 15.68 70 15 70 C14.7525 70.94875 14.505 71.8975 14.25 72.875 C13.31979784 76.09442308 12.23918405 79.23717586 11.0625 82.375 C10.74410156 83.22835937 10.42570313 84.08171875 10.09765625 84.9609375 C9 87 9 87 6 88 C5.93941406 88.92683594 5.87882813 89.85367188 5.81640625 90.80859375 C5.69072266 92.60490234 5.69072266 92.60490234 5.5625 94.4375 C5.48128906 95.63246094 5.40007813 96.82742187 5.31640625 98.05859375 C5 101 5 101 4 102 C3.79663203 103.69279985 3.65276325 105.39283893 3.53515625 107.09375 C3.45716797 108.12371094 3.37917969 109.15367188 3.29882812 110.21484375 C3.1412959 112.4046718 2.98764862 114.5947828 2.83789062 116.78515625 C2.71897461 118.33009766 2.71897461 118.33009766 2.59765625 119.90625 C2.53070557 120.85822266 2.46375488 121.81019531 2.39477539 122.79101562 C2.26449951 123.51998047 2.13422363 124.24894531 2 125 C1.01 125.495 1.01 125.495 0 126 C0 84.42 0 42.84 0 0 Z " fill="#000000" transform="translate(0,0)"/>
<path d="M0 0 C0.02387642 5.82071718 0.0428343 11.64140365 0.05493164 17.4621582 C0.05997267 19.44393441 0.06680538 21.42570689 0.07543945 23.4074707 C0.08751515 26.24952109 0.09323045 29.09152247 0.09765625 31.93359375 C0.10281754 32.82525742 0.10797882 33.71692108 0.11329651 34.63560486 C0.11349177 36.75740601 0.0621003 38.8791078 0 41 C-1.69418709 42.69418709 -3.80636363 42.12657669 -6.06753215 42.13700813 C-7.16958654 42.1344109 -7.16958654 42.1344109 -8.29390466 42.13176119 C-9.0717983 42.13385794 -9.84969195 42.13595468 -10.65115812 42.13811496 C-13.29711864 42.1439991 -15.94302884 42.14266917 -18.58899498 42.14145851 C-20.49827161 42.14420619 -22.40754765 42.14739183 -24.31682289 42.15097916 C-29.6156606 42.15963979 -34.91448599 42.16199433 -40.21332992 42.16340676 C-45.96411752 42.16602423 -51.71489707 42.17439324 -57.46567976 42.18204916 C-68.23731288 42.1955237 -79.00894423 42.20443741 -89.78058341 42.2113149 C-99.97337633 42.21787223 -110.16616441 42.22678239 -120.35895348 42.23780251 C-121.04403955 42.23854162 -121.72912562 42.23928073 -122.43497188 42.24004224 C-125.22576875 42.24305999 -128.0165656 42.24609269 -130.80736243 42.24914447 C-159.25821676 42.28024806 -187.7090742 42.30485164 -216.15993675 42.3269942 C-220.11062215 42.33007107 -224.06130754 42.33315779 -228.01199293 42.3362546 C-229.18999533 42.33717789 -229.18999533 42.33717789 -230.39179575 42.33811985 C-247.86800684 42.35186205 -265.34421594 42.36761726 -282.82042494 42.38378103 C-285.22063402 42.38600085 -287.62084311 42.38821626 -290.0210522 42.39043029 C-296.46132199 42.39637155 -302.90159178 42.40231707 -309.34186156 42.4082709 C-354.45635177 42.4499543 -399.57084344 42.48961002 -444.68533897 42.52509499 C-445.53790857 42.52576593 -446.39047816 42.52643688 -447.2688832 42.52712816 C-456.77146854 42.53460446 -466.2740539 42.54204987 -475.77663927 42.5494829 C-476.63419302 42.5501537 -477.49174677 42.5508245 -478.37528699 42.55151563 C-481.84323051 42.55422815 -485.31117402 42.55694065 -488.77911754 42.55965119 C-541.0882458 42.60054065 -593.39736651 42.64650796 -645.70648528 42.6981408 C-726.81212949 42.77819381 -807.91777665 42.8528321 -889.0234375 42.9140625 C-889.82811754 42.91467053 -890.63279758 42.91527856 -891.46186186 42.91590502 C-968.25255859 42.97386266 -1045.04327892 43.02314734 -1519 42 C-1519 41.34 -1519 40.68 -1519 40 C-1520.98 40 -1522.96 40 -1525 40 C-1525 39.67 -1525 39.34 -1525 39 C-1438.21732717 38.97068555 -1351.43465332 38.95134222 -1242.12791336 38.93814325 C-1238.38544683 38.93771721 -1234.6429803 38.93728319 -1230.90051377 38.93684149 C-1131.75865023 38.92515291 -1032.61678358 38.92560132 -383.94216734 39.49548677 C-379.17211191 39.50152191 -374.40205646 39.50754677 -369.63200101 39.51357197 C-264.32404356 39.64660492 -159.01609271 39.78439977 -3 40 C-3 27.79 -3 15.58 -3 3 C-77.91 3 -152.82 3 -230 3 C-230 2.34 -230 1.68 -230 1 C-205.77025745 0.86833414 -181.54050855 0.7378961 -157.31075191 0.60884857 C-146.05587902 0.54887776 -134.80100839 0.48853212 -123.54614258 0.42724609 C-113.7156811 0.37371738 -103.88521585 0.32095094 -94.05474573 0.26903296 C-88.8684586 0.2416176 -83.68217384 0.21386623 -78.49589348 0.18519592 C-52.33032401 0.04084033 -26.1659743 -0.03179713 0 0 Z " fill="#151515" transform="translate(1634,322)"/>
<path d="M0 0 C0.33 0 0.66 0 1 0 C1 12.87 1 25.74 1 39 C-31.80405953 39.02303348 -64.60811571 39.04073148 -97.41218157 39.05106533 C-101.36349215 39.05231473 -105.31480272 39.05360917 -109.26611328 39.05493164 C-110.0521231 39.05519395 -110.83813293 39.05545626 -111.64796123 39.05572652 C-122.54355182 39.05945501 -133.43913861 39.06557043 -144.33472675 39.07373433 C-163.20752564 39.08787268 -182.08032051 39.0969491 -200.953125 39.09765625 C-201.69711241 39.09769482 -202.44109982 39.09773339 -203.2076323 39.09777313 C-264.80923533 39.09990869 -326.40196976 38.67295077 -388 38 C-388 37.67 -388 37.34 -388 37 C-260.29 37 -132.58 37 -1 37 C-1 25.12 -1 13.24 -1 1 C-0.67 0.67 -0.34 0.34 0 0 Z " fill="#818181" transform="translate(1632,47)"/>
<path d="M0 0 C1.98 0 3.96 0 6 0 C4.68 0.33 3.36 0.66 2 1 C2 12.55 2 24.1 2 36 C88.79 36 175.58 36 265 36 C265 36.66 265 37.32 265 38 C177.55 38 90.1 38 0 38 C0 25.46 0 12.92 0 0 Z " fill="#818181" transform="translate(99,48)"/>
<path d="M0 0 C75.57 0 151.14 0 229 0 C229 12.87 229 25.74 229 39 C228.34 39 227.68 39 227 39 C227 26.79 227 14.58 227 2 C152.09 2 77.18 2 0 2 C0 1.34 0 0.68 0 0 Z " fill="#C2C2C2" transform="translate(1404,323)"/>
<path d="M0 0 C1.98 0 3.96 0 6 0 C4.68 0.33 3.36 0.66 2 1 C2 12.55 2 24.1 2 36 C21.8 36 41.6 36 62 36 C62 36.66 62 37.32 62 38 C41.54 38 21.08 38 0 38 C0 25.46 0 12.92 0 0 Z " fill="#B1B1B1" transform="translate(99,48)"/>
<path d="M0 0 C0 12.87 0 25.74 0 39 C-0.66 39 -1.32 39 -2 39 C-2 26.79 -2 14.58 -2 2 C-27.41 2 -52.82 2 -79 2 C-79 1.67 -79 1.34 -79 1 C-52.65229439 0.07767086 -26.36667448 -0.08560609 0 0 Z " fill="#D7D7D7" transform="translate(1633,323)"/>
<path d="M0 0 C0.33 0 0.66 0 1 0 C1 12.87 1 25.74 1 39 C-18.47 39 -37.94 39 -58 39 C-58 38.67 -58 38.34 -58 38 C-51.77447636 36.8914502 -45.69127542 36.87153704 -39.37890625 36.90234375 C-38.27900864 36.9037587 -37.17911102 36.90517365 -36.04588318 36.90663147 C-32.55139383 36.91220497 -29.05696981 36.92475261 -25.5625 36.9375 C-23.1855478 36.94251842 -20.8085946 36.94708073 -18.43164062 36.95117188 C-12.62107166 36.96216572 -6.8105405 36.97887738 -1 37 C-1.00523682 35.91468994 -1.01047363 34.82937988 -1.01586914 33.71118164 C-1.03391836 29.69882018 -1.04543171 25.68646233 -1.05493164 21.67407227 C-1.05997204 19.93480832 -1.0668043 18.19554864 -1.07543945 16.45629883 C-1.08751792 13.96174063 -1.09323108 11.46723827 -1.09765625 8.97265625 C-1.10281754 8.19036148 -1.10797882 7.40806671 -1.11329651 6.60206604 C-1.11349226 4.73432886 -1.06199694 2.86670796 -1 1 C-0.67 0.67 -0.34 0.34 0 0 Z " fill="#A8A8A8" transform="translate(1632,47)"/>
<path d="M0 0 C0.33 0 0.66 0 1 0 C1 8.25 1 16.5 1 25 C0.34 25 -0.32 25 -1 25 C-1.33 28.3 -1.66 31.6 -2 35 C-2.66 35 -3.32 35 -4 35 C-4 36.65 -4 38.3 -4 40 C-4.66 40 -5.32 40 -6 40 C-6.12375 40.969375 -6.2475 41.93875 -6.375 42.9375 C-6.58125 43.948125 -6.7875 44.95875 -7 46 C-7.99 46.495 -7.99 46.495 -9 47 C-9.25328119 41.93437617 -8.33583899 37.84241633 -7 33 C-6.34 33 -5.68 33 -5 33 C-4.67 28.71 -4.34 24.42 -4 20 C-3.34 20 -2.68 20 -2 20 C-2 17.36 -2 14.72 -2 12 C-1.34 12 -0.68 12 0 12 C0 8.04 0 4.08 0 0 Z " fill="#393939" transform="translate(1727,280)"/>
<path d="M0 0 C5.78591511 -0.10477512 11.29309366 0.00749455 17 1 C17 1.66 17 2.32 17 3 C20.3 3.33 23.6 3.66 27 4 C27 4.66 27 5.32 27 6 C28.65 6 30.3 6 32 6 C32 6.66 32 7.32 32 8 C34.31 8.33 36.62 8.66 39 9 C39 9.66 39 10.32 39 11 C39.99 11 40.98 11 42 11 C42 11.66 42 12.32 42 13 C37.63978226 13.42195656 34.22262952 12.20291908 30.18359375 10.75390625 C28.13747852 10.04746575 26.10664786 9.49202887 24 9 C24 8.34 24 7.68 24 7 C23.29875 6.87625 22.5975 6.7525 21.875 6.625 C19 6 19 6 16.4375 5.0625 C12.17642941 3.74544182 7.9238936 3.17032729 3.51171875 2.5625 C2.68285156 2.376875 1.85398437 2.19125 1 2 C0.67 1.34 0.34 0.68 0 0 Z " fill="#6F6F6F" transform="translate(1614,0)"/>
<path d="M0 0 C0.99 0.33 1.98 0.66 3 1 C2.67 1.99 2.34 2.98 2 4 C0.35 4.33 -1.3 4.66 -3 5 C-3 5.66 -3 6.32 -3 7 C-3.66 7 -4.32 7 -5 7 C-5.226875 7.763125 -5.45375 8.52625 -5.6875 9.3125 C-7.28721401 12.58810488 -8.89919392 13.2170365 -12 15 C-12.4640625 16.051875 -12.4640625 16.051875 -12.9375 17.125 C-13.288125 17.74375 -13.63875 18.3625 -14 19 C-17.125 19.75 -17.125 19.75 -20 20 C-19.1875 18.0625 -19.1875 18.0625 -18 16 C-17.01 15.67 -16.02 15.34 -15 15 C-14.67 14.34 -14.34 13.68 -14 13 C-13 11 -13 11 -10 10 C-9.690625 9.34 -9.38125 8.68 -9.0625 8 C-8 6 -8 6 -5.875 5.25 C-5.25625 5.1675 -4.6375 5.085 -4 5 C-4 4.34 -4 3.68 -4 3 C-3.34 3 -2.68 3 -2 3 C-2 2.34 -2 1.68 -2 1 C-1.34 0.67 -0.68 0.34 0 0 Z " fill="#646464" transform="translate(53,23)"/>
<path d="M0 0 C1.9375 0.8125 1.9375 0.8125 4 2 C4.33 2.99 4.66 3.98 5 5 C5.66 5.33 6.32 5.66 7 6 C7.66 6.33 8.32 6.66 9 7 C9.33 7.99 9.66 8.98 10 10 C10.66 10.309375 11.32 10.61875 12 10.9375 C14 12 14 12 14.75 14.125 C14.87375 15.053125 14.87375 15.053125 15 16 C15.66 16 16.32 16 17 16 C20 19.46153846 20 19.46153846 20 22 C18.02 21.67 16.04 21.34 14 21 C14 19.68 14 18.36 14 17 C13.01 16.67 12.02 16.34 11 16 C11 15.34 11 14.68 11 14 C10.34 14 9.68 14 9 14 C8.67 12.02 8.34 10.04 8 8 C5.69 7.34 3.38 6.68 1 6 C0.67 4.02 0.34 2.04 0 0 Z " fill="#8A8A8A" transform="translate(1686,33)"/>
<path d="M0 0 C0.66 0 1.32 0 2 0 C1.85970581 2.1462026 1.71261836 4.29196218 1.5625 6.4375 C1.48128906 7.63246094 1.40007813 8.82742187 1.31640625 10.05859375 C1 13 1 13 0 14 C-0.20336797 15.69279985 -0.34723675 17.39283893 -0.46484375 19.09375 C-0.54283203 20.12371094 -0.62082031 21.15367188 -0.70117188 22.21484375 C-0.8587041 24.4046718 -1.01235138 26.5947828 -1.16210938 28.78515625 C-1.24138672 29.81511719 -1.32066406 30.84507813 -1.40234375 31.90625 C-1.46929443 32.85822266 -1.53624512 33.81019531 -1.60522461 34.79101562 C-1.73550049 35.51998047 -1.86577637 36.24894531 -2 37 C-2.99 37.495 -2.99 37.495 -4 38 C-4.02929977 34.64585201 -4.0468989 31.29173747 -4.0625 27.9375 C-4.07087891 26.99455078 -4.07925781 26.05160156 -4.08789062 25.08007812 C-4.10581103 19.9369232 -3.89259611 15.06741573 -3 10 C-2.34 10 -1.68 10 -1 10 C-0.67 6.7 -0.34 3.4 0 0 Z " fill="#6E6E6E" transform="translate(4,88)"/>
<path d="M0 0 C0.66 0 1.32 0 2 0 C2 0.99 2 1.98 2 3 C2.66 3 3.32 3 4 3 C4.33 5.31 4.66 7.62 5 10 C5.66 10 6.32 10 7 10 C7 11.65 7 13.3 7 15 C7.66 15 8.32 15 9 15 C9.33 18.3 9.66 21.6 10 25 C10.66 25 11.32 25 12 25 C12 27.31 12 29.62 12 32 C11.34 32 10.68 32 10 32 C10 30.68 10 29.36 10 28 C9.34 28 8.68 28 8 28 C7.67 24.37 7.34 20.74 7 17 C6.34 17 5.68 17 5 17 C4.71125 16.05125 4.4225 15.1025 4.125 14.125 C3.23174891 10.94788422 3.23174891 10.94788422 1 9 C0.5859375 6.8359375 0.5859375 6.8359375 0.375 4.375 C0.30023437 3.55773437 0.22546875 2.74046875 0.1484375 1.8984375 C0.09945313 1.27195312 0.05046875 0.64546875 0 0 Z " fill="#A6A6A6" transform="translate(1716,73)"/>
<path d="M0 0 C0 0.33 0 0.66 0 1 C-2.97 1 -5.94 1 -9 1 C-9 1.66 -9 2.32 -9 3 C-9.81984375 3.13277344 -10.6396875 3.26554688 -11.484375 3.40234375 C-13.10085937 3.66724609 -13.10085937 3.66724609 -14.75 3.9375 C-16.35101563 4.19853516 -16.35101563 4.19853516 -17.984375 4.46484375 C-20.36347593 4.88704171 -22.66915211 5.37202884 -25 6 C-25 6.66 -25 7.32 -25 8 C-30.13295609 10.99422439 -36.22362521 11.91692973 -42 13 C-42 12.34 -42 11.68 -42 11 C-41.01 11 -40.02 11 -39 11 C-39 10.34 -39 9.68 -39 9 C-35.535 8.505 -35.535 8.505 -32 8 C-32 7.34 -32 6.68 -32 6 C-30.35 6 -28.7 6 -27 6 C-27 5.34 -27 4.68 -27 4 C-23.7 3.67 -20.4 3.34 -17 3 C-17 2.34 -17 1.68 -17 1 C-11.29309366 0.00749455 -5.78591511 -0.10477512 0 0 Z " fill="#B7B7B7" transform="translate(115,0)"/>
<path d="M0 0 C0.33 0 0.66 0 1 0 C1 2.64 1 5.28 1 8 C1.66 8 2.32 8 3 8 C3 9.65 3 11.3 3 13 C3.66 13 4.32 13 5 13 C5 14.98 5 16.96 5 19 C5.66 19 6.32 19 7 19 C8.7479503 24.24385089 9.19392201 28.47322267 9 34 C8.67 33.34 8.34 32.68 8 32 C7.34 32 6.68 32 6 32 C6 30.35 6 28.7 6 27 C5.34 27 4.68 27 4 27 C3.67 23.7 3.34 20.4 3 17 C2.34 17 1.68 17 1 17 C0.00749455 11.29309366 -0.10477512 5.78591511 0 0 Z " fill="#DEDEDE" transform="translate(0,288)"/>
<path d="M0 0 C2.97 0.495 2.97 0.495 6 1 C6 1.66 6 2.32 6 3 C6.99 3 7.98 3 9 3 C9 3.66 9 4.32 9 5 C10.32 5.33 11.64 5.66 13 6 C13 6.66 13 7.32 13 8 C13.99 8 14.98 8 16 8 C16 8.66 16 9.32 16 10 C16.99 10.33 17.98 10.66 19 11 C19 11.66 19 12.32 19 13 C19.66 13 20.32 13 21 13 C21 13.66 21 14.32 21 15 C18.03824877 14.38722388 16.61941217 13.74627478 14 12 C14 11.34 14 10.68 14 10 C13.195625 9.71125 12.39125 9.4225 11.5625 9.125 C9 8 9 8 8 6 C7.01 6.495 7.01 6.495 6 7 C5.01 6.67 4.02 6.34 3 6 C3 5.34 3 4.68 3 4 C2.34 4 1.68 4 1 4 C0.67 2.68 0.34 1.36 0 0 Z " fill="#AFAFAF" transform="translate(1665,18)"/>
<path d="M0 0 C0.99 0 1.98 0 3 0 C3 0.66 3 1.32 3 2 C3.66 2 4.32 2 5 2 C5.33 3.98 5.66 5.96 6 8 C6.66 8 7.32 8 8 8 C8.33 10.31 8.66 12.62 9 15 C9.66 15 10.32 15 11 15 C11.33 17.31 11.66 19.62 12 22 C9.52733876 19.73762373 7.936134 17.42546667 6.3125 14.5 C5.87550781 13.7265625 5.43851563 12.953125 4.98828125 12.15625 C4 10 4 10 4 7 C3.34 7 2.68 7 2 7 C0.5393715 4.35261084 0 3.10551666 0 0 Z " fill="#444444" transform="translate(9,323)"/>
<path d="M0 0 C0 0.66 0 1.32 0 2 C-3.63 2 -7.26 2 -11 2 C-11 2.66 -11 3.32 -11 4 C-15.62 4.33 -20.24 4.66 -25 5 C-25 5.66 -25 6.32 -25 7 C-27.31 7.33 -29.62 7.66 -32 8 C-32 7.34 -32 6.68 -32 6 C-28.59648662 3.96780512 -25.6767073 3.63108961 -21.75 3.375 C-20.67234375 3.30023438 -19.5946875 3.22546875 -18.484375 3.1484375 C-17.66453125 3.09945313 -16.8446875 3.05046875 -16 3 C-16 2.34 -16 1.68 -16 1 C-10.62915894 0.31798844 -5.41499441 -0.11521265 0 0 Z " fill="#404040" transform="translate(122,0)"/>
<path d="M0 0 C5.78591511 -0.10477512 11.29309366 0.00749455 17 1 C17 1.66 17 2.32 17 3 C20.3 3.33 23.6 3.66 27 4 C27 4.66 27 5.32 27 6 C23.8106159 6.15187543 21.34586921 6.12065205 18.3125 5.0625 C14.37499668 3.79952724 10.69843769 3.57414217 6.5859375 3.34375 C3.97400474 2.99654444 2.26124547 2.31640581 0 1 C0 0.67 0 0.34 0 0 Z " fill="#D6D6D6" transform="translate(1614,0)"/>
<path d="M0 0 C0.66 0 1.32 0 2 0 C2 0.66 2 1.32 2 2 C2.66 2 3.32 2 4 2 C4.33 3.65 4.66 5.3 5 7 C5.66 7 6.32 7 7 7 C10 12.625 10 12.625 10 16 C8.68 16 7.36 16 6 16 C3 9.375 3 9.375 3 6 C2.34 6 1.68 6 1 6 C0.67 4.02 0.34 2.04 0 0 Z " fill="#7C7C7C" transform="translate(1706,56)"/>
<path d="M0 0 C0.33 0 0.66 0 1 0 C1 1.65 1 3.3 1 5 C1.66 5 2.32 5 3 5 C4.17571451 8.67410785 4.07366746 12.16929183 4 16 C4.66 16 5.32 16 6 16 C6 17.32 6 18.64 6 20 C6.66 20 7.32 20 8 20 C8 25.61 8 31.22 8 37 C7.67 37 7.34 37 7 37 C6.93941406 36.14535156 6.87882812 35.29070312 6.81640625 34.41015625 C6.73261719 33.30542969 6.64882812 32.20070312 6.5625 31.0625 C6.48128906 29.96035156 6.40007812 28.85820313 6.31640625 27.72265625 C6.29581916 25.08890097 6.29581916 25.08890097 5 24 C4.95907063 21.66702567 4.95758277 19.33294775 5 17 C4.34 17 3.68 17 3 17 C2.86722656 16.28972656 2.73445313 15.57945313 2.59765625 14.84765625 C2.42105469 13.92855469 2.24445313 13.00945312 2.0625 12.0625 C1.88847656 11.14597656 1.71445313 10.22945312 1.53515625 9.28515625 C1.22285012 7.04710156 1.22285012 7.04710156 0 6 C-0.04080783 4.00041636 -0.04254356 1.99954746 0 0 Z " fill="#3F3F3F" transform="translate(1720,85)"/>
<path d="M0 0 C0 0.66 0 1.32 0 2 C-2.31 2.33 -4.62 2.66 -7 3 C-7 3.66 -7 4.32 -7 5 C-9.90548882 7.04169485 -11.40142046 8 -15 8 C-15 8.66 -15 9.32 -15 10 C-16.32 10 -17.64 10 -19 10 C-19 9.34 -19 8.68 -19 8 C-17.35 7.34 -15.7 6.68 -14 6 C-14 5.34 -14 4.68 -14 4 C-12.42032193 3.32471777 -10.83608097 2.66010306 -9.25 2 C-8.36828125 1.62875 -7.4865625 1.2575 -6.578125 0.875 C-4 0 -4 0 0 0 Z " fill="#6B6B6B" transform="translate(1671,382)"/>
<path d="M0 0 C0.66 0 1.32 0 2 0 C1.67 1.98 1.34 3.96 1 6 C0.34 6 -0.32 6 -1 6 C-1.226875 6.804375 -1.45375 7.60875 -1.6875 8.4375 C-2.3371875 9.7059375 -2.3371875 9.7059375 -3 11 C-5.625 11.8125 -5.625 11.8125 -8 12 C-7.67 10.68 -7.34 9.36 -7 8 C-6.34 8 -5.68 8 -5 8 C-5 7.01 -5 6.02 -5 5 C-4.34 5 -3.68 5 -3 5 C-2.690625 4.360625 -2.38125 3.72125 -2.0625 3.0625 C-1 1 -1 1 0 0 Z " fill="#A7A7A7" transform="translate(31,43)"/>
<path d="M0 0 C0.33 0 0.66 0 1 0 C1 3.63 1 7.26 1 11 C0.34 11 -0.32 11 -1 11 C-1.33 14.3 -1.66 17.6 -2 21 C-2.66 21 -3.32 21 -4 21 C-4.19537335 16.11566627 -3.62186627 12.57938711 -2 8 C-1.65596692 5.66822025 -1.32050798 3.33512959 -1 1 C-0.67 0.67 -0.34 0.34 0 0 Z " fill="#BCBCBC" transform="translate(1727,294)"/>
<path d="M0 0 C-3 2 -3 2 -6 2 C-6 2.66 -6 3.32 -6 4 C-6.66 4 -7.32 4 -8 4 C-8 4.66 -8 5.32 -8 6 C-8.99 6 -9.98 6 -11 6 C-11 6.66 -11 7.32 -11 8 C-12.98 8.33 -14.96 8.66 -17 9 C-17 8.34 -17 7.68 -17 7 C-16.34 7 -15.68 7 -15 7 C-15 6.34 -15 5.68 -15 5 C-13.35 4.67 -11.7 4.34 -10 4 C-10 3.34 -10 2.68 -10 2 C-9.01 2 -8.02 2 -7 2 C-7 1.34 -7 0.68 -7 0 C-3.86650268 -1.04449911 -3.01031744 -0.93423645 0 0 Z " fill="#A2A2A2" transform="translate(73,14)"/>
<path d="M0 0 C2.33512959 0.32050798 4.66822025 0.65596692 7 1 C7.9075 1.12375 8.815 1.2475 9.75 1.375 C12.32765796 2.0910161 13.26455444 3.01663364 15 5 C15.66 5.33 16.32 5.66 17 6 C17 6.66 17 7.32 17 8 C15.24859857 7.54705135 13.49892656 7.08741252 11.75 6.625 C10.77546875 6.36976563 9.8009375 6.11453125 8.796875 5.8515625 C6.34162697 5.10401491 4.24382595 4.22876183 2 3 C2 2.34 2 1.68 2 1 C1.34 0.67 0.68 0.34 0 0 Z " fill="#919191" transform="translate(71,389)"/>
<path d="M0 0 C0.66 0 1.32 0 2 0 C1.88556397 2.0839403 1.75804453 4.16716493 1.625 6.25 C1.55539063 7.41015625 1.48578125 8.5703125 1.4140625 9.765625 C1.03751692 12.70694334 0.5225877 14.49949011 -1 17 C-1.66 17 -2.32 17 -3 17 C-3 14.69 -3 12.38 -3 10 C-2.34 10 -1.68 10 -1 10 C-0.67 6.7 -0.34 3.4 0 0 Z " fill="#BDBDBD" transform="translate(4,88)"/>
<path d="M0 0 C0.66 0 1.32 0 2 0 C1.46290761 3.32997279 0.60654243 6.52786858 -0.375 9.75 C-0.60960937 10.52859375 -0.84421875 11.3071875 -1.0859375 12.109375 C-1.53839844 13.04523438 -1.53839844 13.04523438 -2 14 C-2.99 14.33 -3.98 14.66 -5 15 C-5 13.35 -5 11.7 -5 10 C-4.34 10 -3.68 10 -3 10 C-2.67 7.69 -2.34 5.38 -2 3 C-1.34 3 -0.68 3 0 3 C0 2.01 0 1.02 0 0 Z " fill="#9C9C9C" transform="translate(11,73)"/>
<path d="M0 0 C0.66 0 1.32 0 2 0 C2 1.98 2 3.96 2 6 C2.66 6 3.32 6 4 6 C5.7479503 11.24385089 6.19392201 15.47322267 6 21 C5.67 20.34 5.34 19.68 5 19 C4.34 19 3.68 19 3 19 C3 15.04 3 11.08 3 7 C2.34 7 1.68 7 1 7 C0.67 4.69 0.34 2.38 0 0 Z " fill="#787878" transform="translate(3,301)"/>
<path d="M0 0 C1.9375 0.8125 1.9375 0.8125 4 2 C4.33 2.99 4.66 3.98 5 5 C5.66 5.33 6.32 5.66 7 6 C7.66 6.33 8.32 6.66 9 7 C9.33 7.99 9.66 8.98 10 10 C9.34 10 8.68 10 8 10 C8 9.34 8 8.68 8 8 C5.69 7.34 3.38 6.68 1 6 C0.67 4.02 0.34 2.04 0 0 Z " fill="#8A8A8A" transform="translate(1686,33)"/>
<path d="M0 0 C0.99 0.33 1.98 0.66 3 1 C2.67 1.99 2.34 2.98 2 4 C0.35 4.33 -1.3 4.66 -3 5 C-3 5.66 -3 6.32 -3 7 C-3.639375 7.12375 -4.27875 7.2475 -4.9375 7.375 C-5.9584375 7.684375 -5.9584375 7.684375 -7 8 C-7.33 8.66 -7.66 9.32 -8 10 C-8.66 10 -9.32 10 -10 10 C-9.25 8.0625 -9.25 8.0625 -8 6 C-5.875 5.25 -5.875 5.25 -4 5 C-4 4.34 -4 3.68 -4 3 C-3.34 3 -2.68 3 -2 3 C-2 2.34 -2 1.68 -2 1 C-1.34 0.67 -0.68 0.34 0 0 Z " fill="#AAAAAA" transform="translate(53,23)"/>
<path d="M0 0 C0.33 0.99 0.66 1.98 1 3 C-0.58203125 5.48046875 -0.58203125 5.48046875 -2.8125 8.1875 C-3.90498047 9.53908203 -3.90498047 9.53908203 -5.01953125 10.91796875 C-5.99986328 11.94857422 -5.99986328 11.94857422 -7 13 C-7.66 13 -8.32 13 -9 13 C-7.125 8.25 -7.125 8.25 -6 6 C-5.34 6 -4.68 6 -4 6 C-3.67 5.01 -3.34 4.02 -3 3 C-2.34 3 -1.68 3 -1 3 C-0.67 2.01 -0.34 1.02 0 0 Z " fill="#BABABA" transform="translate(1705,347)"/>
<path d="M0 0 C0.99 0 1.98 0 3 0 C3 1.65 3 3.3 3 5 C3.66 5 4.32 5 5 5 C5 7.31 5 9.62 5 12 C4.34 12 3.68 12 3 12 C3 10.68 3 9.36 3 8 C2.34 8 1.68 8 1 8 C0.67 5.36 0.34 2.72 0 0 Z " fill="#BCBCBC" transform="translate(1723,93)"/>
<path d="M0 0 C0.66 0 1.32 0 2 0 C2 1.65 2 3.3 2 5 C1.34 5 0.68 5 0 5 C-0.12375 5.969375 -0.2475 6.93875 -0.375 7.9375 C-0.58125 8.948125 -0.7875 9.95875 -1 11 C-1.99 11.495 -1.99 11.495 -3 12 C-3.34833144 7.12335991 -2.41685712 4.22949995 0 0 Z " fill="#BEBEBE" transform="translate(1721,315)"/>
<path d="M0 0 C2.97 0.495 2.97 0.495 6 1 C6.33 2.98 6.66 4.96 7 7 C5.68 6.67 4.36 6.34 3 6 C3 5.34 3 4.68 3 4 C2.34 4 1.68 4 1 4 C0.67 2.68 0.34 1.36 0 0 Z " fill="#6E6E6E" transform="translate(1665,18)"/>
<path d="M0 0 C-0.33 0.66 -0.66 1.32 -1 2 C-3.32156597 2.40729228 -5.6568787 2.74438677 -8 3 C-8 3.66 -8 4.32 -8 5 C-8.99 5 -9.98 5 -11 5 C-10.67 3.68 -10.34 2.36 -10 1 C-6.59437148 0.22157062 -3.49234244 -0.09978121 0 0 Z " fill="#808080" transform="translate(1652,392)"/>
<path d="M0 0 C1.32 0 2.64 0 4 0 C4 0.66 4 1.32 4 2 C5.65 2.33 7.3 2.66 9 3 C9 3.66 9 4.32 9 5 C9.66 5 10.32 5 11 5 C11 5.66 11 6.32 11 7 C10.01 7 9.02 7 8 7 C8 6.34 8 5.68 8 5 C7.13375 4.814375 7.13375 4.814375 6.25 4.625 C3.97664233 3.99351176 2.0746471 3.11141809 0 2 C0 1.34 0 0.68 0 0 Z " fill="#797979" transform="translate(56,380)"/>
<path d="M0 0 C3.3 0 6.6 0 10 0 C10 0.99 10 1.98 10 3 C8.5199159 2.88637738 7.04089926 2.75877092 5.5625 2.625 C4.73878906 2.55539062 3.91507813 2.48578125 3.06640625 2.4140625 C2.38449219 2.27742187 1.70257812 2.14078125 1 2 C0.67 1.34 0.34 0.68 0 0 Z " fill="#999999" transform="translate(1614,0)"/>
<path d="M0 0 C1.32 0 2.64 0 4 0 C4 0.66 4 1.32 4 2 C3.34 2 2.68 2 2 2 C1.67 2.99 1.34 3.98 1 5 C0.34 5 -0.32 5 -1 5 C-1 5.66 -1 6.32 -1 7 C-1.99 7 -2.98 7 -4 7 C-4 6.34 -4 5.68 -4 5 C-3.34 4.67 -2.68 4.34 -2 4 C-0.86649466 1.98330173 -0.86649466 1.98330173 0 0 Z " fill="#B2B2B2" transform="translate(1682,370)"/>
<path d="M0 0 C0.66 0 1.32 0 2 0 C1.67 2.31 1.34 4.62 1 7 C-0.32 7.33 -1.64 7.66 -3 8 C-2.67 6.35 -2.34 4.7 -2 3 C-1.34 3 -0.68 3 0 3 C0 2.01 0 1.02 0 0 Z " fill="#A0A0A0" transform="translate(21,55)"/>
<path d="M0 0 C1.32 0 2.64 0 4 0 C3.67 1.32 3.34 2.64 3 4 C1.02 4.33 -0.96 4.66 -3 5 C-1.125 1.125 -1.125 1.125 0 0 Z " fill="#6D6D6D" transform="translate(36,38)"/>
<path d="M0 0 C0.66 0 1.32 0 2 0 C1.67 1.98 1.34 3.96 1 6 C0.34 6 -0.32 6 -1 6 C-1.33 6.99 -1.66 7.98 -2 9 C-2.93423645 5.98968256 -3.04449911 5.13349732 -2 2 C-1.34 2 -0.68 2 0 2 C0 1.34 0 0.68 0 0 Z " fill="#979797" transform="translate(16,64)"/>
<path d="M0 0 C2.31 0.33 4.62 0.66 7 1 C7 1.66 7 2.32 7 3 C7.99 3 8.98 3 10 3 C10 3.66 10 4.32 10 5 C7.8125 5.3125 7.8125 5.3125 5 5 C2.1875 2.5 2.1875 2.5 0 0 Z " fill="#ABABAB" transform="translate(1646,8)"/>
<path d="M0 0 C-3 2 -3 2 -6 2 C-6 2.66 -6 3.32 -6 4 C-7.32 4 -8.64 4 -10 4 C-10 3.34 -10 2.68 -10 2 C-3.375 -1.125 -3.375 -1.125 0 0 Z " fill="#878787" transform="translate(1662,388)"/>
<path d="M0 0 C0.33 0.66 0.66 1.32 1 2 C-0.25 4 -0.25 4 -2 6 C-3.32 6 -4.64 6 -6 6 C-5.8125 4.125 -5.8125 4.125 -5 2 C-2.4375 0.75 -2.4375 0.75 0 0 Z " fill="#6D6D6D" transform="translate(29,49)"/>
<path d="M0 0 C0 0.66 0 1.32 0 2 C-1.65 2 -3.3 2 -5 2 C-5 2.66 -5 3.32 -5 4 C-7.31 4.33 -9.62 4.66 -12 5 C-12 4.34 -12 3.68 -12 3 C-8.2080182 0.81231819 -4.37268114 0 0 0 Z " fill="#4E4E4E" transform="translate(102,3)"/>
<path d="M0 0 C0 0.66 0 1.32 0 2 C-3.63 2.33 -7.26 2.66 -11 3 C-7.63114177 -0.36885823 -4.54278442 -0.10095076 0 0 Z " fill="#A2A2A2" transform="translate(1639,397)"/>
<path d="M0 0 C4.02992782 0.55312735 8.02022924 1.1558062 12 2 C12 2.66 12 3.32 12 4 C8.7 3.67 5.4 3.34 2 3 C2 2.34 2 1.68 2 1 C1.34 0.67 0.68 0.34 0 0 Z " fill="#606060" transform="translate(71,389)"/>
<path d="M0 0 C0.66 0 1.32 0 2 0 C2 0.66 2 1.32 2 2 C3.65 2.33 5.3 2.66 7 3 C7.33 4.32 7.66 5.64 8 7 C7.34 7 6.68 7 6 7 C6 6.34 6 5.68 6 5 C5.38125 4.9175 4.7625 4.835 4.125 4.75 C2 4 2 4 0.75 1.9375 C0.5025 1.298125 0.255 0.65875 0 0 Z " fill="#B1B1B1" transform="translate(43,370)"/>
<path d="M0 0 C0.33 0 0.66 0 1 0 C1 1.65 1 3.3 1 5 C1.66 5 2.32 5 3 5 C3 7.31 3 9.62 3 12 C2.34 12 1.68 12 1 12 C0.01751476 7.9472484 -0.08159574 4.16138263 0 0 Z " fill="#BABABA" transform="translate(3,303)"/>
<path d="M0 0 C0.66 0 1.32 0 2 0 C2 0.66 2 1.32 2 2 C2.66 2 3.32 2 4 2 C4.33 3.65 4.66 5.3 5 7 C3.68 6.67 2.36 6.34 1 6 C0.67 4.02 0.34 2.04 0 0 Z " fill="#9B9B9B" transform="translate(1706,56)"/>
<path d="M0 0 C2.4375 0.8125 2.4375 0.8125 5 2 C5.33 2.99 5.66 3.98 6 5 C3.03 4.505 3.03 4.505 0 4 C0 2.68 0 1.36 0 0 Z " fill="#727272" transform="translate(1700,50)"/>
<path d="M0 0 C0 0.66 0 1.32 0 2 C-4.38461538 5 -4.38461538 5 -7 5 C-6.625 3.0625 -6.625 3.0625 -6 1 C-4 0 -4 0 0 0 Z " fill="#B1B1B1" transform="translate(1678,377)"/>
<path d="M0 0 C0.66 0 1.32 0 2 0 C2 0.66 2 1.32 2 2 C2.66 2 3.32 2 4 2 C4.33 4.31 4.66 6.62 5 9 C1.9083091 6.47043472 1.09068668 3.77545388 0 0 Z " fill="#848484" transform="translate(16,336)"/>
<path d="M0 0 C0.99 0 1.98 0 3 0 C3.33 2.31 3.66 4.62 4 7 C3.34 7 2.68 7 2 7 C0.5393715 4.35261084 0 3.10551666 0 0 Z " fill="#868686" transform="translate(9,323)"/>
<path d="M0 0 C1.32 0.33 2.64 0.66 4 1 C4.33 2.98 4.66 4.96 5 7 C4.34 7 3.68 7 3 7 C2.67 5.35 2.34 3.7 2 2 C1.34 2 0.68 2 0 2 C0 1.34 0 0.68 0 0 Z " fill="#9D9D9D" transform="translate(21,345)"/>
<path d="M0 0 C0.99 0 1.98 0 3 0 C3 0.66 3 1.32 3 2 C4.32 2.33 5.64 2.66 7 3 C7 3.66 7 4.32 7 5 C3 5 3 5 1.25 3.625 C0 2 0 2 0 0 Z " fill="#C2C2C2" transform="translate(1671,21)"/>
</svg>
